<?xml version="1.0" encoding="UTF-8"?><svg id="Layer_1" xmlns="http://www.w3.org/2000/svg" viewBox="0 0 941.88 1182.04"><path d="M380.09,1051.46c-113.76-46.25-191.36-130.96-227.8-252.65-13.46-43.47-10.57-42.6-17.24-87.46-1.84-42.13,5.57-85.82,15.32-118.88,23.59-80,65.65-148.84,117.99-210.24,37.61-44.09,55.11-96.11,62.6-153.19,9.23-70.32,5.48-140.53-3.6-210.58-.54-4.13-.07-8.4-.07-16.04,151.82,99.14,235.35,246.05,282.21,423.54,51.39-81.86,39.84-156.63-16.21-228.39l3.9-1.92c3.56,2.16,7.27,4.09,10.65,6.52,53.58,38.53,99.11,85.83,136.48,142.04,50.44,75.86,81.44,160.35,94.94,251.69,8.05,54.48,3.86,109.14-8.68,162.83-13.63,61.76-32.71,113.31-70.7,165.22-.22.29-3.35,3.68-3.59,4-5.18,7-16.97-2.2-20.24-5.32-6.95-6.61-9.8-7.98-12.96-11.42-.72-.79-1.58-1.99-1.88-3.29-.16-.65-.04-1.36-.04-2.13.02-6.66.29-14.97,3.14-24.64,41.78-141.53,22.3-274.98-46.54-401.97-.91-1.67-2.04-3.2-3.83-5.95-30.17,29.4-59.4,59.67-102.08,71.52-15.21-70.85-56.15-124.69-99.87-178.57-2.03,3.76-3.64,6.2-4.77,8.87-31.93,74.41-74.4,141.21-126.78,201.03-39.33,44.88-71.5,94.44-84.65,155.46-11.36,52.78-5.05,103.14,15.75,152.9,25.77,61.67,66.35,110.22,111.99,155.1,4.29,4.23,8.33,8.72,12.5,13.09-1.08,1.72-.94,1.51-2.02,3.23-4.65-1.45-9.42-2.57-13.93-4.42h0v.02Z" fill="#fff" stroke-width="0"/><path d="M82.6,643.21c-20.47,84.59-11.99,166.33,24.46,243.13,46.84,98.64,116.04,173.08,216.77,209.2,29.63,10.63,60.38,14.73,76.67,14.35,82.48-.45,147.66-20.5,208.14-50.72,8.68-4.34,17.1-9.36,26.01-13.05,3.06-1.27,8.13-.78,10.8,1.18,13.06,9.64,25.49,20.21,38.39,30.09,5.93,4.55,5.33,8.63.53,13.27-1.09,1.04-2.18,2.14-3.42,2.95-63.55,41.54-130.94,72.85-205.19,84.75-95.84,7.09-177.91.1-283.61-70.71-69.15-43.51-102.66-86.7-136.64-145.06-.33-.59-.66-1.17-1.03-1.73-24-36.11-34.13-80.38-43.78-122.99-29.93-145.03,13.62-307.11,123.7-424.35,21.58-23.01,38.47-43.09,61.8-64.2,2.64-2.38,6.97-2.64,10.52-3.87.31,3.63,1.57,7.5.78,10.84-6.48,27.44-13.08,54.87-20.32,82.08-1.3,4.93-5.33,9.27-8.73,13.28-47.48,55.9-78,117.69-95.86,191.56h0Z" fill="#fff" stroke-width="0"/><path d="M917.53,542.58c35.63,107.06,27.81,212.63-11.23,316.95-20.82,55.59-49.14,98.26-81.67,146.74-.67,1.03-1.23,2.01-2.03,3.26-1.42,2.22-4.21,2.01-5.99.11-15.03-15.98-26.02-25.67-35.23-44.36-1.41-2.27,2.13-9.19,4.69-12.94,31.35-45.86,56.15-95.27,71.84-149.63,18.75-64.99,22.78-131.01,13.44-198.32-13.09-94.47-48.98-179.21-95.65-259.5-9.33-16.06-19.56-31.53-29.26-47.34-2.02-3.31-3.53-6.98-6.7-13.34,4.79,1.69,6.72,1.78,7.82,2.84,73.92,72.13,135.97,153.42,169.96,255.53h.01Z" fill="#fff" stroke-width="0"/><path d="M784.57,1012.15c6.86,6.85,8.54,12.96,7.56,23.54-.83,9-4.09,18.98-11.89,31.11-7.28,10.58-14.8,16.06-26.44,21.8-2.26,1.11-4.99.11-7.23-1.03-5.28-2.72-3.5-.62-15.91-12.26l-.19-.19c-62.98-66.41-125.4-133.41-188.38-199.8-7.35-7.75-9-14.83-6.47-25.03,5.15-20.79,15.72-36.94,32.77-48.51,6.47-4.39,11.04-4.76,17.17,1.74,48.15,51.1,96.71,101.76,145.15,152.55,17.89,18.76,35.54,37.8,53.86,56.08Z" fill="#fff" stroke-width="0"/><path d="M659.27,677.51c.3,6.05-7.17,16.9-8.78,20.55-12.15,27.82-29.01,53.06-42.85,79.96-2.88,5.58-8.84,8.54-14.71,7.31-19.75-4.18-37.57,2.99-49.48,18.93-10.59,14.21-17.97,31.51-24.89,48.33-5.82,14.13,2.71,25.82,10.65,36.25,10,13.13,5.86,34.35-8.82,40.96-22.79,10.25-58.59,27.61-81.45,37.64-1.39.61-5.01,2.6-6.94,3.2-2.68.83-5.11-1.96-4.14-4.74.65-1.82,2.48-5.17,3.12-6.48,22.04-44.97,54.7-98.35,76.84-143.27,16.47-33.44,36.09-65.37,52.92-98.59,2.06-4.05,6-8.51,9.91-9.73,25.15-7.82,52.96-19.32,77.82-28.13,3.28-1.16,6.82-3,9.25-3.78,1.16-.37,1.51.79,1.54,1.58h.01Z" fill="#fff" stroke-width="0"/><path d="M645.08,642.88c8.69,8.54,8.41,12.87-2.58,17.71-20.36,8.98-41.1,17.05-61.77,25.21-5.92,1.87-13.4,5-19.74,6.23-5.12,1.67-11.25-5.13-17.15-10.3-33.19-31.86-60.4-66.21-93.18-98.55-2.8-2.75-5.92-8.31-5.45-10.8.9-4.67,7.09-8.75,10.5-10.21,26.09-6.7,52.35-12.71,78.7-18.12,4.17-.87,10.33.97,13.5,4.01,32.64,31.31,64.89,63.09,97.18,94.82h0Z" fill="#fff" stroke-width="0"/><path d="M536.18,703.28c1.13,2.41,1.25,5.18.36,7.69-1.4,3.97-2.42,7.1-3.87,10-37.78,75.24-75.71,150.42-113.47,225.67-9.49,18.9-17.39,20.19-30.37,4.72-25.61-30.5-51.61-60.63-76.89-91.45-8.44-10.3-10.68-22.69-4.46-35.83,35.52-75.16,70.95-150.36,106.44-225.55,6.59-13.96,12.57-15.18,23.5-4.16,30.05,30.29,59.65,60.97,89.09,91.92,5.56,8.37,7.19,10.98,9.66,17h.01Z" fill="#fff" stroke="#f0525e" stroke-miterlimit="10" stroke-width="3"/><path d="M683.85,1077.4c5.92,4.53,5.32,8.62.52,13.26-1.09,1.04-2.18,2.13-3.41,2.95-63.57,41.54-130.96,72.85-205.2,84.75-95.83,7.1-177.9.11-283.61-70.69-69.14-43.53-102.65-86.71-136.63-145.07-.33-.57-.66-1.17-1.04-1.72-23.99-36.14-34.12-80.41-43.78-123.01-29.91-145.01,13.62-307.11,123.72-424.34,21.56-23.01,38.46-43.1,61.79-64.2,2.62-2.4,6.96-2.65,10.51-3.88.33,3.63,1.58,7.51.79,10.84-6.5,27.43-13.1,54.86-20.33,82.07-1.28,4.94-5.32,9.28-8.73,13.29-47.46,55.9-77.98,117.69-95.86,191.55-20.47,84.58-11.98,166.33,24.48,243.13,46.84,98.64,116.03,173.07,216.77,209.18,29.61,10.64,60.37,14.74,76.67,14.36,82.48-.44,147.66-20.5,208.14-50.71,8.68-4.34,17.09-9.36,26.01-13.05,3.06-1.28,8.11-.79,10.78,1.17,13.07,9.63,25.49,20.22,38.4,30.11h0Z" fill="#fff" stroke-width="0"/><path d="M536.16,703.29c1.15,2.4,1.26,5.19.38,7.7-1.42,3.96-2.43,7.1-3.88,9.99-37.77,75.25-75.71,150.42-113.46,225.67-9.5,18.89-17.39,20.2-30.38,4.72-25.63-30.49-51.61-60.65-76.89-91.43-8.43-10.32-10.67-22.71-4.48-35.84,35.54-75.17,70.96-150.36,106.45-225.56,6.61-13.95,12.58-15.18,23.5-4.18,30.05,30.3,59.66,60.97,89.09,91.93,5.57,8.38,7.21,10.97,9.66,17h.01Z" fill="#fff" stroke-width="0"/><path d="M536.16,703.29c1.15,2.4,1.26,5.19.38,7.7-1.42,3.96-2.43,7.1-3.88,9.99-37.77,75.25-75.71,150.42-113.46,225.67-9.5,18.89-17.39,20.2-30.38,4.72-25.63-30.49-51.61-60.65-76.89-91.43-8.43-10.32-10.67-22.71-4.48-35.84,35.54-75.17,70.96-150.36,106.45-225.56,6.61-13.95,12.58-15.18,23.5-4.18,30.05,30.3,59.66,60.97,89.09,91.93,5.57,8.38,7.21,10.97,9.66,17h.01Z" fill="none" stroke="#f2f2f3" stroke-miterlimit="10" stroke-width="3"/><path d="M327.28,2.41c151.81,99.16,235.35,246.05,282.22,423.55,51.39-81.85,39.85-156.64-16.21-228.39l3.9-1.91c3.55,2.16,7.26,4.07,10.64,6.52,53.58,38.51,99.1,85.81,136.47,142.04,50.44,75.85,81.44,160.32,94.96,251.68,8.05,54.48,3.85,109.15-8.68,162.84-13.65,61.77-32.73,113.32-70.72,165.24-.22.27-3.33,3.66-3.58,3.98-5.19,7.01-16.98-2.21-20.25-5.32-6.93-6.61-9.8-7.97-12.96-11.41-.71-.79-1.58-1.99-1.86-3.3-.16-.66-.05-1.36-.05-2.13.03-6.66.3-14.96,3.14-24.62,41.79-141.55,22.3-274.99-46.54-401.98-.9-1.66-2.05-3.19-3.82-5.95-30.16,29.4-59.39,59.66-102.08,71.54-15.2-70.85-56.14-124.71-99.87-178.58-2.02,3.77-3.63,6.2-4.78,8.87-31.91,74.43-74.38,141.22-126.78,201.05-39.33,44.87-71.48,94.44-84.64,155.47-11.35,52.76-5.05,103.12,15.75,152.9,25.77,61.66,66.35,110.21,111.99,155.08,4.29,4.23,8.35,8.73,12.5,13.1-1.09,1.72-.96,1.5-2.02,3.22-4.64-1.45-9.42-2.57-13.92-4.42-113.76-46.24-191.38-130.96-227.82-252.63-13.46-43.48-10.56-42.61-17.22-87.48-1.86-42.14,5.57-85.81,15.31-118.86,23.58-80,65.64-148.83,117.99-210.24,37.61-44.08,55.11-96.1,62.58-153.2,9.25-70.31,5.49-140.54-3.58-210.57-.55-4.12-.08-8.41-.08-16.05v-.04Z" fill="none" stroke="#f2f2f3" stroke-miterlimit="10" stroke-width="3"/><path d="M400.51,1109.88c82.48-.44,147.66-20.5,208.14-50.71,8.68-4.34,17.09-9.36,26.01-13.05,3.06-1.28,8.11-.79,10.78,1.17,13.07,9.63,25.49,20.22,38.4,30.11,5.92,4.53,5.32,8.62.52,13.26-1.09,1.04-2.18,2.13-3.41,2.95-63.57,41.54-130.96,72.85-205.2,84.75-95.83,7.1-177.9.11-283.61-70.69-69.14-43.53-102.65-86.71-136.63-145.07-.33-.57-.66-1.17-1.04-1.72-23.99-36.14-34.12-80.41-43.78-123.01-29.91-145.01,13.62-307.11,123.72-424.34,21.56-23.01,38.46-43.1,61.79-64.2,2.62-2.4,6.96-2.65,10.51-3.88.33,3.63,1.58,7.51.79,10.84-6.5,27.43-13.1,54.86-20.33,82.07-1.28,4.94-5.32,9.28-8.73,13.29-47.46,55.9-77.98,117.69-95.86,191.55-20.47,84.58-11.98,166.33,24.48,243.13,46.84,98.64,116.03,173.07,216.77,209.18,29.61,10.64,60.37,14.74,76.67,14.36h0Z" fill="none" stroke="#f2f2f3" stroke-miterlimit="10" stroke-width="3"/><path d="M822.61,1009.52c-1.45,2.21-4.23,2.02-6,.11-15.04-15.97-26.01-25.66-35.24-44.35-1.39-2.27,2.13-9.2,4.69-12.94,31.36-45.85,56.14-95.28,71.84-149.62,18.75-64.99,22.79-131.01,13.46-198.32-13.1-94.46-48.99-179.21-95.66-259.51-9.31-16.05-19.54-31.52-29.26-47.33-2.02-3.33-3.52-6.99-6.69-13.35,4.8,1.69,6.71,1.77,7.83,2.84,73.91,72.14,135.95,153.42,169.96,255.53,35.62,107.05,27.81,212.62-11.25,316.96-20.83,55.57-49.13,98.26-81.66,146.73-.68,1.01-1.23,1.99-2.02,3.25h0Z" fill="none" stroke="#f2f2f3" stroke-miterlimit="10" stroke-width="3"/><path d="M753.8,1088.59c-2.27,1.12-4.97.11-7.23-1.04-5.27-2.7-3.49-.6-15.91-12.25l-.19-.19c-62.97-66.41-125.39-133.39-188.38-199.79-7.34-7.75-9.01-14.82-6.47-25.03,5.16-20.8,15.72-36.96,32.78-48.53,6.47-4.39,11.03-4.75,17.17,1.75,48.15,51.09,96.73,101.78,145.15,152.57,17.9,18.75,35.54,37.8,53.85,56.06,6.88,6.85,8.54,12.96,7.56,23.55-.82,9.01-4.09,18.97-11.87,31.09-7.29,10.59-14.82,16.08-26.45,21.81h-.01Z" fill="none" stroke="#f2f2f3" stroke-miterlimit="10" stroke-width="3"/><path d="M561,692.01c-5.13,1.69-11.27-5.13-17.17-10.29-33.19-31.85-60.4-66.21-93.18-98.56-2.78-2.76-5.92-8.3-5.46-10.78.9-4.69,7.1-8.76,10.51-10.24,26.09-6.69,52.35-12.69,78.72-18.1,4.18-.87,10.32.96,13.48,4.01,32.64,31.31,64.9,63.08,97.19,94.82,8.68,8.54,8.41,12.86-2.59,17.71-20.36,8.98-41.1,17.03-61.77,25.19-5.92,1.88-13.4,5.02-19.73,6.22v.02Z" fill="none" stroke="#f2f2f3" stroke-miterlimit="10" stroke-width="3"/><path d="M432.01,970.66c-2.67.82-5.1-1.97-4.15-4.75.66-1.8,2.48-5.16,3.14-6.47,22.03-44.98,54.7-98.37,76.83-143.27,16.46-33.46,36.08-65.4,52.92-98.61,2.05-4.04,6-8.49,9.91-9.72,25.14-7.83,52.95-19.32,77.81-28.14,3.28-1.15,6.82-3,9.25-3.77,1.17-.38,1.5.79,1.56,1.58.3,6.03-7.18,16.89-8.79,20.55-12.15,27.81-29.01,53.06-42.85,79.94-2.89,5.6-8.84,8.54-14.71,7.31-19.76-4.18-37.56,3-49.48,18.94-10.59,14.19-17.96,31.5-24.89,48.34-5.81,14.14,2.73,25.82,10.64,36.25,10.02,13.13,5.87,34.36-8.82,40.97-22.79,10.24-58.57,27.59-81.44,37.64-1.39.6-5.02,2.59-6.93,3.19v.02Z" fill="none" stroke="#f2f2f3" stroke-miterlimit="10" stroke-width="3"/></svg>